<svg xmlns="http://www.w3.org/2000/svg" viewBox="0 0 120 120" width="512" height="512">
  <defs><linearGradient id="g" x1="0" y1="0" x2="0" y2="1"><stop offset="0" stop-color="#46665A"/><stop offset="1" stop-color="#34503F"/></linearGradient></defs>
  <rect width="120" height="120" rx="0" fill="url(#g)"/>
  <g transform="translate(60 61) scale(0.5) translate(-60 -60)"><defs><mask id="alliance-weave-maskable" maskUnits="userSpaceOnUse" x="-10" y="-10" width="140" height="140"><rect x="-10" y="-10" width="140" height="140" fill="#fff"/><g fill="none" stroke="#000" stroke-width="19" stroke-linejoin="round"><path d="M53 44.65L66 29.35"/><path d="M78.28 80.38C75 89.38 67.5 97.25 60 104C52.5 97.25 45 89.38 41.72 80.38"/></g></mask></defs>
  <g transform="translate(0 -2)" fill="none" stroke="#FAFAF8" stroke-width="12" stroke-miterlimit="4">
    <path mask="url(#alliance-weave-maskable)" d="M46 95H38A20 20 0 0 1 18 75V36A16 16 0 0 1 34 20H38C44 20 48 22.5 52 27L69 47C76 55 80 62 80 71C80 84 70 95 60 104C50 95 40 84 40 71C40 62 44 55 51 47L68 27C72 22.5 76 20 82 20H86A16 16 0 0 1 102 36V75A20 20 0 0 1 82 95H74"/>
    <path d="M51 47L68 27"/>
    <path d="M80 71C80 84 70 95 60 104C50 95 40 84 40 71"/>
  </g></g>
</svg>
